<svg id="Layer_2" data-name="Layer 2" xmlns="http://www.w3.org/2000/svg" viewBox="0 0 1864.27 1864.27"><defs><style>.cls-1{fill:#ffe600;}.cls-1,.cls-10,.cls-11,.cls-12,.cls-13,.cls-14,.cls-15,.cls-16,.cls-17,.cls-18,.cls-19,.cls-2,.cls-20,.cls-21,.cls-22,.cls-23,.cls-24,.cls-25,.cls-26,.cls-27,.cls-28,.cls-29,.cls-3,.cls-30,.cls-31,.cls-32,.cls-33,.cls-34,.cls-4,.cls-5,.cls-6,.cls-7,.cls-8,.cls-9{opacity:0.25;}.cls-2{fill:#ffdc00;}.cls-3{fill:#ffca00;}.cls-4{fill:#ffa400;}.cls-5{fill:#ff7900;}.cls-6{fill:#ff5600;}.cls-7{fill:#ff3800;}.cls-8{fill:#ff1c00;}.cls-9{fill:#d90000;}.cls-10{fill:#c52b00;}.cls-11{fill:#9d0d42;}.cls-12{fill:#ac0062;}.cls-13{fill:#95004e;}.cls-14{fill:#860062;}.cls-15{fill:#72217e;}.cls-16{fill:#53357e;}.cls-17{fill:#2f357e;}.cls-18{fill:#264687;}.cls-19{fill:#0054e3;}.cls-20{fill:#0081e2;}.cls-21{fill:#2dace1;}.cls-22{fill:#00c5ed;}.cls-23{fill:#00cdd4;}.cls-24{fill:#00decf;}.cls-25{fill:#00cdc5;}.cls-26{fill:#0ab197;}.cls-27{fill:#0ab15d;}.cls-28{fill:#0aa200;}.cls-29{fill:#35bd00;}.cls-30{fill:#77e100;}.cls-31{fill:#a9e100;}.cls-32{fill:#cde600;}.cls-33{fill:#f2f500;}.cls-34{fill:#fff500;}</style></defs><ellipse class="cls-1" cx="932.14" cy="466.07" rx="233.83" ry="466.07"/><ellipse class="cls-2" cx="1719.07" cy="741.01" rx="233.83" ry="466.07" transform="matrix(0.98, -0.17, 0.17, 0.98, -970.42, 41.91)"/><ellipse class="cls-3" cx="1640.6" cy="762.04" rx="233.83" ry="466.07" transform="translate(-1029.56 339.21) rotate(-20)"/><ellipse class="cls-4" cx="1566.97" cy="796.37" rx="233.83" ry="466.07" transform="translate(-1056.12 622.31) rotate(-30)"/><ellipse class="cls-5" cx="1500.42" cy="842.97" rx="233.83" ry="466.07" transform="translate(-1058.68 893.8) rotate(-40)"/><ellipse class="cls-6" cx="1442.97" cy="900.42" rx="233.83" ry="466.07" transform="translate(-1042.18 1159.16) rotate(-50)"/><ellipse class="cls-7" cx="1396.37" cy="966.97" rx="233.83" ry="466.07" transform="translate(-1007.09 1424.91) rotate(-60)"/><ellipse class="cls-8" cx="1362.04" cy="1040.6" rx="233.83" ry="466.07" transform="translate(-949.51 1696.73) rotate(-70)"/><ellipse class="cls-9" cx="1341.01" cy="1119.07" rx="233.83" ry="466.07" transform="translate(-861.78 1977.52) rotate(-80)"/><ellipse class="cls-10" cx="466.07" cy="932.14" rx="466.07" ry="233.83"/><ellipse class="cls-11" cx="1341.01" cy="1280.93" rx="466.07" ry="233.83" transform="translate(-1069.92 -15.54) rotate(-10)"/><ellipse class="cls-12" cx="1362.04" cy="1359.4" rx="466.07" ry="233.83" transform="translate(-1250.67 279.96) rotate(-20)"/><ellipse class="cls-13" cx="1396.37" cy="1433.03" rx="466.07" ry="233.83" transform="translate(-1397.3 622.31) rotate(-30)"/><ellipse class="cls-14" cx="1442.97" cy="1499.58" rx="466.07" ry="233.83" transform="translate(-1494.19 1010.5) rotate(-40)"/><ellipse class="cls-15" cx="1500.42" cy="1557.03" rx="466.07" ry="233.83" transform="translate(-1524.65 1437.71) rotate(-50)"/><ellipse class="cls-16" cx="1566.97" cy="1603.63" rx="466.07" ry="233.83" transform="translate(-1473.16 1890.98) rotate(-60)"/><ellipse class="cls-17" cx="1640.6" cy="1637.96" rx="466.07" ry="233.83" transform="translate(-1327.56 2351.54) rotate(-70)"/><ellipse class="cls-18" cx="1719.07" cy="1658.99" rx="466.07" ry="233.83" transform="translate(-1081.09 2796) rotate(-80)"/><ellipse class="cls-19" cx="932.14" cy="1398.21" rx="233.83" ry="466.07"/><ellipse class="cls-20" cx="1880.93" cy="1658.99" rx="233.83" ry="466.07" transform="translate(-1127.37 83.96) rotate(-10)"/><ellipse class="cls-21" cx="1959.4" cy="1637.96" rx="233.83" ry="466.07" transform="translate(-1309.91 501.07) rotate(-20)"/><ellipse class="cls-22" cx="2033.03" cy="1603.63" rx="233.83" ry="466.07" transform="translate(-1397.3 963.5) rotate(-30)"/><ellipse class="cls-23" cx="2099.58" cy="1557.03" rx="233.83" ry="466.07" transform="translate(-1377.49 1446) rotate(-40)"/><ellipse class="cls-24" cx="2157.03" cy="1499.58" rx="233.83" ry="466.07" transform="translate(-1246.09 1920.19) rotate(-50)"/><ellipse class="cls-25" cx="2203.63" cy="1433.03" rx="233.83" ry="466.07" transform="translate(-1007.09 2357.05) rotate(-60)"/><ellipse class="cls-26" cx="2237.96" cy="1359.4" rx="233.83" ry="466.07" transform="translate(-672.75 2729.59) rotate(-70)"/><ellipse class="cls-26" cx="2258.99" cy="1280.93" rx="233.83" ry="466.07" transform="translate(-262.62 3015.31) rotate(-80)"/><ellipse class="cls-27" cx="1398.21" cy="932.14" rx="466.07" ry="233.83"/><ellipse class="cls-28" cx="2258.99" cy="1119.07" rx="466.07" ry="233.83" transform="matrix(0.98, -0.17, 0.17, 0.98, -1027.87, 141.41)"/><ellipse class="cls-29" cx="2237.96" cy="1040.6" rx="466.07" ry="233.83" transform="translate(-1088.8 560.32) rotate(-20)"/><ellipse class="cls-30" cx="2203.63" cy="966.97" rx="466.07" ry="233.83" transform="translate(-1056.12 963.5) rotate(-30)"/><ellipse class="cls-31" cx="2157.03" cy="900.42" rx="466.07" ry="233.83" transform="translate(-941.99 1329.31) rotate(-40)"/><ellipse class="cls-32" cx="2099.58" cy="842.97" rx="466.07" ry="233.83" transform="translate(-763.62 1641.63) rotate(-50)"/><ellipse class="cls-33" cx="2033.03" cy="796.37" rx="466.07" ry="233.83" transform="translate(-541.03 1890.98) rotate(-60)"/><ellipse class="cls-34" cx="1959.4" cy="762.04" rx="466.07" ry="233.83" transform="translate(-294.7 2074.78) rotate(-70)"/><ellipse class="cls-34" cx="1880.93" cy="741.01" rx="466.07" ry="233.83" transform="translate(-43.31 2196.83) rotate(-80)"/></svg>